<?xml version="1.0" encoding="UTF-8"?>
<!DOCTYPE svg PUBLIC "-//W3C//DTD SVG 1.1//EN" "http://www.w3.org/Graphics/SVG/1.1/DTD/svg11.dtd">
<svg xmlns="http://www.w3.org/2000/svg" version="1.1" width="1000px" height="196px" style="shape-rendering:geometricPrecision; text-rendering:geometricPrecision; image-rendering:optimizeQuality; fill-rule:evenodd; clip-rule:evenodd" xmlns:xlink="http://www.w3.org/1999/xlink">
<g><path style="opacity:0.795" fill="#fefffe" d="M -0.5,-0.5 C 6.16667,-0.5 12.8333,-0.5 19.5,-0.5C 51.5892,4.03079 81.0892,15.3641 108,33.5C 135.199,15.1571 165.032,3.82373 197.5,-0.5C 204.167,-0.5 210.833,-0.5 217.5,-0.5C 217.5,62.1667 217.5,124.833 217.5,187.5C 144.833,187.5 72.1667,187.5 -0.5,187.5C -0.5,124.833 -0.5,62.1667 -0.5,-0.5 Z"/></g>
<g><path style="opacity:1" fill="#fefffe" d="M 739.5,24.5 C 743.167,24.5 746.833,24.5 750.5,24.5C 750.5,67.8333 750.5,111.167 750.5,154.5C 746.833,154.5 743.167,154.5 739.5,154.5C 739.5,111.167 739.5,67.8333 739.5,24.5 Z"/></g>
<g><path style="opacity:1" fill="#fefffe" d="M 543.5,28.5 C 551.696,28.529 554.863,32.529 553,40.5C 548.333,45.8333 543.667,45.8333 539,40.5C 537.309,35.1311 538.809,31.1311 543.5,28.5 Z"/></g>
<g><path style="opacity:1" fill="#fefffe" d="M 850.5,28.5 C 858.696,28.529 861.863,32.529 860,40.5C 855.333,45.8333 850.667,45.8333 846,40.5C 844.309,35.1311 845.809,31.1311 850.5,28.5 Z"/></g>
<g><path style="opacity:1" fill="#fefffe" d="M 272.5,31.5 C 277.167,31.5 281.833,31.5 286.5,31.5C 301.648,66.4678 316.815,101.468 332,136.5C 347.209,101.746 362.709,67.079 378.5,32.5C 382.783,31.5078 387.116,31.1744 391.5,31.5C 391.5,72.5 391.5,113.5 391.5,154.5C 387.833,154.5 384.167,154.5 380.5,154.5C 380.381,119.475 380.548,84.4749 381,49.5C 366.216,84.4019 350.883,119.069 335,153.5C 333.186,154.76 331.353,154.76 329.5,153.5C 313.51,119.854 298.343,85.8542 284,51.5C 283.5,85.8317 283.333,120.165 283.5,154.5C 279.833,154.5 276.167,154.5 272.5,154.5C 272.5,113.5 272.5,72.5 272.5,31.5 Z"/></g>
<g><path style="opacity:1" fill="#fefffe" d="M 572.5,31.5 C 586.171,31.3334 599.837,31.5001 613.5,32C 635.072,36.5832 643.072,49.5832 637.5,71C 634.087,80.0798 627.753,86.0798 618.5,89C 635.837,91.8345 644.837,102.001 645.5,119.5C 644.142,139.026 633.809,150.526 614.5,154C 600.504,154.5 586.504,154.667 572.5,154.5C 572.5,113.5 572.5,72.5 572.5,31.5 Z M 583.5,41.5 C 593.889,41.1302 604.223,41.6302 614.5,43C 623.348,46.0119 627.681,52.1786 627.5,61.5C 627.032,75.1361 620.032,82.9695 606.5,85C 598.841,85.4997 591.174,85.6664 583.5,85.5C 583.5,70.8333 583.5,56.1667 583.5,41.5 Z M 583.5,95.5 C 592.173,95.3336 600.84,95.5002 609.5,96C 624.655,96.6558 632.655,104.489 633.5,119.5C 633.385,133.563 626.385,141.729 612.5,144C 602.839,144.5 593.172,144.666 583.5,144.5C 583.5,128.167 583.5,111.833 583.5,95.5 Z"/></g>
<g><path style="opacity:1" fill="#fefffe" d="M 437.5,64.5 C 447.686,63.2141 457.02,65.3807 465.5,71C 470.442,76.1425 473.275,82.3091 474,89.5C 474.5,111.164 474.667,132.831 474.5,154.5C 470.833,154.5 467.167,154.5 463.5,154.5C 463.666,149.489 463.499,144.489 463,139.5C 452.714,155.263 438.547,160.096 420.5,154C 407.913,146.533 403.747,135.699 408,121.5C 413.051,111.468 421.218,105.635 432.5,104C 442.823,102.359 453.156,100.859 463.5,99.5C 463.796,80.9593 454.796,72.7927 436.5,75C 428.736,76.5498 421.736,79.7165 415.5,84.5C 414.167,80.5 414.167,76.5 415.5,72.5C 422.595,68.8052 429.928,66.1385 437.5,64.5 Z M 459.5,108.5 C 460.833,108.5 462.167,108.5 463.5,108.5C 465.677,121.996 461.677,133.163 451.5,142C 440.271,148.736 429.771,147.902 420,139.5C 414.4,125.942 418.567,117.108 432.5,113C 441.675,111.716 450.675,110.216 459.5,108.5 Z"/></g>
<g><path style="opacity:1" fill="#fefffe" d="M 685.5,64.5 C 706.851,62.4162 720.017,71.7495 725,92.5C 726.21,99.1117 726.71,105.778 726.5,112.5C 705.5,112.5 684.5,112.5 663.5,112.5C 666.265,142.228 681.932,152.395 710.5,143C 714.419,141.46 717.919,139.293 721,136.5C 721.667,140.167 721.667,143.833 721,147.5C 708.288,155.908 694.455,158.408 679.5,155C 668.092,151.259 660.259,143.759 656,132.5C 649.781,113.834 651.781,96.1674 662,79.5C 668.231,71.8116 676.065,66.8116 685.5,64.5 Z M 686.5,74.5 C 705.93,73.5948 715.596,82.9282 715.5,102.5C 698.167,102.5 680.833,102.5 663.5,102.5C 665.092,87.8928 672.759,78.5594 686.5,74.5 Z"/></g>
<g><path style="opacity:1" fill="#fefffe" d="M 794.5,64.5 C 804.686,63.2141 814.02,65.3807 822.5,71C 827.442,76.1425 830.275,82.3091 831,89.5C 831.5,111.164 831.667,132.831 831.5,154.5C 827.833,154.5 824.167,154.5 820.5,154.5C 820.666,149.489 820.499,144.489 820,139.5C 809.714,155.263 795.547,160.096 777.5,154C 764.913,146.533 760.747,135.699 765,121.5C 770.051,111.468 778.218,105.635 789.5,104C 799.823,102.359 810.156,100.859 820.5,99.5C 820.796,80.9593 811.796,72.7927 793.5,75C 785.736,76.5498 778.736,79.7165 772.5,84.5C 771.167,80.5 771.167,76.5 772.5,72.5C 779.595,68.8052 786.928,66.1385 794.5,64.5 Z M 816.5,108.5 C 817.833,108.5 819.167,108.5 820.5,108.5C 822.677,121.996 818.677,133.163 808.5,142C 797.271,148.736 786.771,147.902 777,139.5C 771.4,125.942 775.567,117.108 789.5,113C 798.675,111.716 807.675,110.216 816.5,108.5 Z"/></g>
<g><path style="opacity:1" fill="#fefffe" d="M 902.5,64.5 C 912.686,63.2141 922.02,65.3807 930.5,71C 935.442,76.1425 938.275,82.3091 939,89.5C 939.5,111.164 939.667,132.831 939.5,154.5C 935.833,154.5 932.167,154.5 928.5,154.5C 928.666,149.489 928.499,144.489 928,139.5C 917.714,155.263 903.547,160.096 885.5,154C 872.913,146.533 868.747,135.699 873,121.5C 878.051,111.468 886.218,105.635 897.5,104C 907.823,102.359 918.156,100.859 928.5,99.5C 928.796,80.9593 919.796,72.7927 901.5,75C 893.736,76.5498 886.736,79.7165 880.5,84.5C 879.167,80.5 879.167,76.5 880.5,72.5C 887.595,68.8052 894.928,66.1385 902.5,64.5 Z M 924.5,108.5 C 925.833,108.5 927.167,108.5 928.5,108.5C 930.677,121.996 926.677,133.163 916.5,142C 905.271,148.736 894.771,147.902 885,139.5C 879.4,125.942 883.567,117.108 897.5,113C 906.675,111.716 915.675,110.216 924.5,108.5 Z"/></g>
<g><path style="opacity:1" fill="#fefffe" d="M 521.5,65.5 C 525.881,65.3718 530.215,65.7051 534.5,66.5C 534.823,70.226 534.489,73.8927 533.5,77.5C 519.547,72.9296 510.047,77.5963 505,91.5C 503.687,95.4204 502.687,99.4204 502,103.5C 501.5,120.497 501.333,137.497 501.5,154.5C 497.833,154.5 494.167,154.5 490.5,154.5C 490.5,125.167 490.5,95.8333 490.5,66.5C 494.167,66.5 497.833,66.5 501.5,66.5C 501.334,72.8421 501.5,79.1754 502,85.5C 505.178,75.3886 511.678,68.7219 521.5,65.5 Z"/></g>
<g><path style="opacity:1" fill="#fefffe" d="M 999.5,66.5 C 999.5,70.1667 999.5,73.8333 999.5,77.5C 987.758,72.8031 978.591,75.8031 972,86.5C 969.558,91.933 967.892,97.5997 967,103.5C 966.5,120.497 966.333,137.497 966.5,154.5C 962.833,154.5 959.167,154.5 955.5,154.5C 955.5,125.167 955.5,95.8333 955.5,66.5C 959.167,66.5 962.833,66.5 966.5,66.5C 966.334,72.8421 966.5,79.1754 967,85.5C 972.177,69.4946 983.011,63.1613 999.5,66.5 Z"/></g>
<g><path style="opacity:1" fill="#fefffe" d="M 540.5,66.5 C 544.167,66.5 547.833,66.5 551.5,66.5C 551.5,95.8333 551.5,125.167 551.5,154.5C 547.833,154.5 544.167,154.5 540.5,154.5C 540.5,125.167 540.5,95.8333 540.5,66.5 Z"/></g>
<g><path style="opacity:1" fill="#fefffe" d="M 833.5,195.5 C 829.5,195.5 825.5,195.5 821.5,195.5C 819.461,194.422 817.294,193.422 815,192.5C 814.333,188.833 814.333,185.167 815,181.5C 830.434,189.246 840.767,184.913 846,168.5C 847.458,134.535 847.958,100.535 847.5,66.5C 851.167,66.5 854.833,66.5 858.5,66.5C 858.951,100.531 858.451,134.531 857,168.5C 854.909,182.743 847.076,191.743 833.5,195.5 Z"/></g>
</svg>
